<svg width="162" height="18" viewBox="0 0 162 18" fill="none" xmlns="http://www.w3.org/2000/svg">
<path d="M0.566406 4.21875C0.30599 4.14062 0.14974 3.97135 0.0976562 3.71094C0.0325521 3.52865 0.0520833 3.33333 0.15625 3.125C0.260417 2.90365 0.423177 2.77995 0.644531 2.75391C1.90755 2.55859 3.17057 2.45443 4.43359 2.44141C5.70964 2.41536 6.98568 2.39583 8.26172 2.38281C8.50911 2.38281 8.69792 2.46094 8.82812 2.61719C8.95833 2.77344 9.02344 2.94922 9.02344 3.14453C9.02344 3.33984 8.95833 3.52214 8.82812 3.69141C8.69792 3.84766 8.50911 3.92578 8.26172 3.92578C7.24609 3.95182 6.22396 3.96484 5.19531 3.96484C4.16667 3.96484 3.13802 4.01693 2.10938 4.12109C2.13542 4.64193 2.16797 5.16276 2.20703 5.68359C2.24609 6.19141 2.28516 6.70573 2.32422 7.22656C3.3138 7.17448 4.29688 7.10938 5.27344 7.03125C6.26302 6.95312 7.2526 6.9401 8.24219 6.99219C8.48958 7.00521 8.67839 7.09635 8.80859 7.26562C8.9388 7.4349 9.00391 7.61719 9.00391 7.8125C9.00391 8.00781 8.9388 8.18359 8.80859 8.33984C8.67839 8.49609 8.48958 8.56771 8.24219 8.55469C7.26562 8.5026 6.29557 8.51562 5.33203 8.59375C4.38151 8.67188 3.41797 8.73698 2.44141 8.78906C2.51953 9.72656 2.59115 10.6641 2.65625 11.6016C2.73438 12.526 2.78646 13.457 2.8125 14.3945C3.26823 14.2904 3.73047 14.1927 4.19922 14.1016C4.66797 13.9974 5.13672 13.9193 5.60547 13.8672C6.07422 13.8021 6.54297 13.7695 7.01172 13.7695C7.48047 13.7695 7.94922 13.8086 8.41797 13.8867C8.6263 13.9258 8.78255 14.0495 8.88672 14.2578C8.99089 14.4661 9.01693 14.6615 8.96484 14.8438C8.89974 15.0651 8.77604 15.2214 8.59375 15.3125C8.41146 15.4036 8.20964 15.4297 7.98828 15.3906C7.57161 15.3125 7.14844 15.2865 6.71875 15.3125C6.28906 15.3385 5.86589 15.3841 5.44922 15.4492C4.96745 15.5273 4.48568 15.6185 4.00391 15.7227C3.53516 15.8268 3.06641 15.9375 2.59766 16.0547C2.3763 16.1068 2.16797 16.0677 1.97266 15.9375C1.79036 15.9115 1.6276 15.8398 1.48438 15.7227C1.34115 15.6055 1.26953 15.4297 1.26953 15.1953C1.24349 14.0885 1.19141 12.9948 1.11328 11.9141C1.04818 10.8333 0.970052 9.74609 0.878906 8.65234C0.735677 8.50911 0.651042 8.33333 0.625 8.125C0.611979 7.90365 0.670573 7.71484 0.800781 7.55859C0.696615 6.45182 0.61849 5.33854 0.566406 4.21875ZM11.4453 11.6406C11.1068 11.3932 10.8659 11.0872 10.7227 10.7227C10.5794 10.3451 10.5729 9.94792 10.7031 9.53125C10.8333 9.15365 11.0352 8.8151 11.3086 8.51562C11.582 8.21615 11.8945 7.97526 12.2461 7.79297C12.6367 7.58464 13.0534 7.42188 13.4961 7.30469C13.9388 7.1875 14.388 7.1224 14.8438 7.10938C15.2995 7.09635 15.7487 7.14193 16.1914 7.24609C16.6471 7.33724 17.0768 7.48698 17.4805 7.69531C17.7018 7.8125 17.8255 7.96875 17.8516 8.16406C17.8776 8.35938 17.8385 8.54167 17.7344 8.71094C17.6432 8.88021 17.5 9.00391 17.3047 9.08203C17.1094 9.16016 16.901 9.14062 16.6797 9.02344C16.3672 8.85417 16.0156 8.74349 15.625 8.69141C15.2344 8.63932 14.8372 8.63932 14.4336 8.69141C14.043 8.73047 13.6719 8.82812 13.3203 8.98438C12.9688 9.14062 12.6758 9.34245 12.4414 9.58984C12.3763 9.65495 12.3307 9.70052 12.3047 9.72656C12.2917 9.7526 12.2656 9.8112 12.2266 9.90234L12.1875 10.1172C12.2266 10.2344 12.2591 10.306 12.2852 10.332C12.5456 10.5013 12.8125 10.612 13.0859 10.6641C13.3724 10.7031 13.6589 10.7292 13.9453 10.7422C14.349 10.7682 14.7591 10.7943 15.1758 10.8203C15.6055 10.8333 16.0156 10.8854 16.4062 10.9766C16.8099 11.0677 17.181 11.2174 17.5195 11.4258C17.8581 11.6341 18.1445 11.9401 18.3789 12.3438C18.6393 12.7995 18.7565 13.2747 18.7305 13.7695C18.7174 14.2513 18.5286 14.6875 18.1641 15.0781C17.7995 15.4688 17.3763 15.7422 16.8945 15.8984C16.4128 16.0417 15.9245 16.1458 15.4297 16.2109C14.987 16.263 14.5247 16.276 14.043 16.25C13.5742 16.224 13.1185 16.1458 12.6758 16.0156C12.2461 15.8984 11.8424 15.7161 11.4648 15.4688C11.0872 15.2083 10.7747 14.8698 10.5273 14.4531C10.4102 14.2448 10.3906 14.0495 10.4688 13.8672C10.5469 13.6719 10.6641 13.5286 10.8203 13.4375C10.9896 13.3333 11.1719 13.2943 11.3672 13.3203C11.5755 13.3464 11.7448 13.4635 11.875 13.6719C12.0573 13.9714 12.3112 14.1992 12.6367 14.3555C12.9622 14.5117 13.3138 14.6224 13.6914 14.6875C14.082 14.7396 14.4727 14.7526 14.8633 14.7266C15.2539 14.6875 15.6055 14.6354 15.918 14.5703C16.0872 14.5312 16.2565 14.4792 16.4258 14.4141C16.6081 14.3359 16.7578 14.2448 16.875 14.1406C17.0052 14.0365 17.0964 13.9193 17.1484 13.7891C17.2005 13.6458 17.194 13.4896 17.1289 13.3203C16.9987 12.9948 16.7773 12.7604 16.4648 12.6172C16.1654 12.474 15.8464 12.3893 15.5078 12.3633C15.1693 12.3372 14.8242 12.3242 14.4727 12.3242C14.1211 12.3242 13.7695 12.3112 13.418 12.2852C13.0664 12.2461 12.7214 12.181 12.3828 12.0898C12.0443 11.9987 11.7318 11.849 11.4453 11.6406ZM26.1523 9.16016C26.3997 9.16016 26.582 9.23828 26.6992 9.39453C26.8294 9.55078 26.8945 9.72656 26.8945 9.92188C26.8945 10.1172 26.8294 10.2995 26.6992 10.4688C26.582 10.625 26.3997 10.7031 26.1523 10.7031C25.8398 10.7161 25.5273 10.7161 25.2148 10.7031C24.9154 10.6771 24.6159 10.651 24.3164 10.625C24.3294 11.6536 24.3099 12.6823 24.2578 13.7109C24.2188 14.7396 24.1146 15.7617 23.9453 16.7773C23.9193 16.9987 23.8021 17.1615 23.5938 17.2656C23.3854 17.3698 23.1836 17.3893 22.9883 17.3242C22.7669 17.2591 22.6107 17.1354 22.5195 16.9531C22.4414 16.7839 22.4219 16.5885 22.4609 16.3672C22.6172 15.3776 22.7018 14.388 22.7148 13.3984C22.7409 12.4089 22.7409 11.4128 22.7148 10.4102C22.2201 10.332 21.7188 10.2539 21.2109 10.1758C20.7031 10.0846 20.2018 10.0065 19.707 9.94141C19.4857 9.91536 19.3294 9.79818 19.2383 9.58984C19.1341 9.36849 19.1081 9.16667 19.1602 8.98438C19.2253 8.76302 19.349 8.61328 19.5312 8.53516C19.7135 8.44401 19.9089 8.41146 20.1172 8.4375C20.5469 8.5026 20.9766 8.57422 21.4062 8.65234C21.8359 8.71745 22.2721 8.78255 22.7148 8.84766C22.7018 8.78255 22.6953 8.6849 22.6953 8.55469C22.6953 7.38281 22.6888 6.22396 22.6758 5.07812C22.6758 3.93229 22.7344 2.77344 22.8516 1.60156C22.8776 1.39323 22.9557 1.21094 23.0859 1.05469C23.2292 0.898438 23.4115 0.820312 23.6328 0.820312C23.8281 0.820312 24.0104 0.898438 24.1797 1.05469C24.362 1.21094 24.4401 1.39323 24.4141 1.60156C24.2839 2.85156 24.2188 4.09505 24.2188 5.33203C24.2318 6.55599 24.2513 7.79948 24.2773 9.0625C24.5898 9.08854 24.9023 9.11458 25.2148 9.14062C25.5273 9.15365 25.8398 9.16016 26.1523 9.16016ZM28.2617 8.02734C28.2747 7.77995 28.3659 7.59766 28.5352 7.48047C28.7044 7.35026 28.8867 7.28516 29.082 7.28516C29.2773 7.28516 29.4466 7.35026 29.5898 7.48047C29.7461 7.59766 29.8177 7.77995 29.8047 8.02734C29.8047 8.10547 29.7982 8.1901 29.7852 8.28125C29.7852 8.35938 29.7852 8.4375 29.7852 8.51562C30.2018 8.30729 30.638 8.13151 31.0938 7.98828C31.5625 7.83203 32.0247 7.73438 32.4805 7.69531C32.9492 7.65625 33.3984 7.69531 33.8281 7.8125C34.2708 7.91667 34.6745 8.125 35.0391 8.4375C35.2214 8.60677 35.2995 8.78906 35.2734 8.98438C35.2604 9.17969 35.1823 9.34896 35.0391 9.49219C34.9089 9.6224 34.7396 9.70703 34.5312 9.74609C34.3229 9.77214 34.1211 9.70703 33.9258 9.55078C33.7826 9.43359 33.6198 9.34896 33.4375 9.29688C33.2682 9.24479 33.0794 9.22526 32.8711 9.23828C32.6758 9.23828 32.474 9.25781 32.2656 9.29688C32.0703 9.33594 31.8815 9.38151 31.6992 9.43359C31.0091 9.65495 30.3646 9.94792 29.7656 10.3125C29.7917 10.9505 29.8307 11.5885 29.8828 12.2266C29.9349 12.7604 29.9805 13.3138 30.0195 13.8867C30.0586 14.4466 30.1693 14.9805 30.3516 15.4883C30.4297 15.7227 30.4102 15.918 30.293 16.0742C30.1888 16.2435 30.0391 16.3542 29.8438 16.4062C29.6615 16.4583 29.4661 16.4453 29.2578 16.3672C29.0625 16.2891 28.9258 16.1328 28.8477 15.8984C28.7435 15.599 28.6719 15.293 28.6328 14.9805C28.5938 14.668 28.5547 14.3555 28.5156 14.043C28.4896 13.7435 28.457 13.444 28.418 13.1445C28.3919 12.832 28.3659 12.526 28.3398 12.2266C28.2747 11.5234 28.2292 10.8268 28.2031 10.1367C28.1901 9.43359 28.2096 8.73047 28.2617 8.02734ZM36.7578 8.39844C37.0052 8.0599 37.2982 7.76042 37.6367 7.5C37.9883 7.23958 38.3594 7.03776 38.75 6.89453C39.1406 6.73828 39.5443 6.66016 39.9609 6.66016C40.3776 6.64714 40.7943 6.72526 41.2109 6.89453C41.6146 7.05078 41.9792 7.26562 42.3047 7.53906C42.6302 7.79948 42.8841 8.13802 43.0664 8.55469C43.2096 8.86719 43.2943 9.20573 43.3203 9.57031C43.3464 9.9349 43.2487 10.2669 43.0273 10.5664C42.832 10.8398 42.5911 11.0482 42.3047 11.1914C42.0312 11.3346 41.7318 11.4388 41.4062 11.5039C41.0938 11.569 40.7682 11.6016 40.4297 11.6016C40.1042 11.6016 39.7917 11.5951 39.4922 11.582C39.1536 11.569 38.8151 11.543 38.4766 11.5039C38.151 11.4648 37.819 11.4258 37.4805 11.3867C37.5846 11.9727 37.793 12.4935 38.1055 12.9492C38.418 13.4049 38.8411 13.75 39.375 13.9844C39.5182 14.0365 39.6289 14.0755 39.707 14.1016C39.7461 14.1146 39.7786 14.1276 39.8047 14.1406C39.8438 14.1406 39.8828 14.1406 39.9219 14.1406C40.026 14.1536 40.1107 14.1667 40.1758 14.1797C40.2539 14.1797 40.3255 14.1732 40.3906 14.1602C40.4818 14.1471 40.5404 14.1406 40.5664 14.1406C40.6055 14.1276 40.6445 14.1146 40.6836 14.1016C40.8268 14.0625 40.9505 14.0169 41.0547 13.9648C41.1719 13.9128 41.3086 13.8281 41.4648 13.7109C41.543 13.6458 41.6471 13.5482 41.7773 13.418C41.9076 13.2878 42.0182 13.1706 42.1094 13.0664C42.2396 12.8841 42.3958 12.7604 42.5781 12.6953C42.7734 12.6302 42.9688 12.6562 43.1641 12.7734C43.3333 12.8776 43.4505 13.0404 43.5156 13.2617C43.5938 13.4701 43.5677 13.6654 43.4375 13.8477C43.0599 14.3555 42.6107 14.7917 42.0898 15.1562C41.582 15.5078 40.9961 15.6966 40.332 15.7227C39.7982 15.7487 39.2839 15.6576 38.7891 15.4492C38.2943 15.2279 37.8581 14.9349 37.4805 14.5703C37.0117 14.1146 36.6406 13.5872 36.3672 12.9883C36.0938 12.3893 35.944 11.7773 35.918 11.1523C35.8008 11.0612 35.7096 10.9505 35.6445 10.8203C35.5924 10.6771 35.5729 10.5339 35.5859 10.3906C35.612 10.2474 35.6641 10.1172 35.7422 10C35.8203 9.86979 35.9375 9.78516 36.0938 9.74609C36.237 9.26432 36.4583 8.8151 36.7578 8.39844ZM41.4453 8.86719C41.3021 8.6849 41.0807 8.52214 40.7812 8.37891C40.5339 8.27474 40.2409 8.22266 39.9023 8.22266C39.5768 8.22266 39.2969 8.28125 39.0625 8.39844C38.763 8.54167 38.4961 8.74349 38.2617 9.00391C38.0273 9.2513 37.8385 9.53125 37.6953 9.84375C38.0078 9.88281 38.3203 9.92188 38.6328 9.96094C38.9453 10 39.2578 10.026 39.5703 10.0391C39.7396 10.0391 39.9089 10.0391 40.0781 10.0391C40.2474 10.0391 40.4167 10.0326 40.5859 10.0195C40.638 10.0195 40.6836 10.0195 40.7227 10.0195C40.7747 10.0065 40.8268 10 40.8789 10C40.9961 9.97396 41.0807 9.96094 41.1328 9.96094C41.1979 9.94792 41.263 9.92839 41.3281 9.90234C41.3802 9.88932 41.4453 9.86979 41.5234 9.84375C41.5885 9.81771 41.6276 9.79818 41.6406 9.78516C41.6536 9.77214 41.6732 9.75911 41.6992 9.74609L41.7578 9.51172C41.7318 9.45964 41.7122 9.41406 41.6992 9.375C41.6992 9.32292 41.6862 9.27734 41.6602 9.23828C41.6471 9.19922 41.6146 9.14062 41.5625 9.0625C41.5234 8.98438 41.4844 8.91927 41.4453 8.86719ZM46.1523 0.644531C46.3867 0.644531 46.569 0.722656 46.6992 0.878906C46.8294 1.03516 46.9076 1.21745 46.9336 1.42578C47.0638 2.66276 47.1354 3.89974 47.1484 5.13672C47.1615 6.3737 47.1419 7.61068 47.0898 8.84766C47.0508 10.0846 46.9857 11.3216 46.8945 12.5586C46.8034 13.7956 46.7122 15.026 46.6211 16.25C46.5951 16.4714 46.5104 16.6536 46.3672 16.7969C46.237 16.9531 46.0612 17.0312 45.8398 17.0312C45.6445 17.0312 45.4622 16.9531 45.293 16.7969C45.1237 16.6536 45.0456 16.4714 45.0586 16.25C45.1497 15.026 45.2409 13.7956 45.332 12.5586C45.4362 11.3216 45.5078 10.0846 45.5469 8.84766C45.599 7.61068 45.6185 6.3737 45.6055 5.13672C45.5924 3.89974 45.5208 2.66276 45.3906 1.42578C45.3646 1.21745 45.4362 1.03516 45.6055 0.878906C45.7747 0.722656 45.957 0.644531 46.1523 0.644531ZM50.5469 15.4492C50.1042 15.2539 49.7526 14.987 49.4922 14.6484C49.2448 14.2969 49.069 13.9128 48.9648 13.4961C48.8737 13.0794 48.8477 12.6497 48.8867 12.207C48.9258 11.7513 49.0169 11.3151 49.1602 10.8984C49.2773 10.5729 49.4076 10.2344 49.5508 9.88281C49.707 9.53125 49.8893 9.20573 50.0977 8.90625C50.306 8.60677 50.5534 8.35286 50.8398 8.14453C51.1263 7.92318 51.4648 7.77995 51.8555 7.71484C52.2591 7.64974 52.6628 7.63021 53.0664 7.65625C53.4831 7.66927 53.8932 7.70833 54.2969 7.77344C54.4792 7.79948 54.6549 7.84505 54.8242 7.91016C54.9935 7.96224 55.1628 8.02083 55.332 8.08594C55.3451 7.89062 55.4297 7.72786 55.5859 7.59766C55.7552 7.46745 55.931 7.40234 56.1133 7.40234C56.3346 7.40234 56.5104 7.48047 56.6406 7.63672C56.7839 7.77995 56.8685 7.95573 56.8945 8.16406C56.9596 8.76302 56.9857 9.36198 56.9727 9.96094C56.9727 10.5599 56.9531 11.1589 56.9141 11.7578C56.888 12.3568 56.862 12.9557 56.8359 13.5547C56.8229 14.1536 56.8294 14.7526 56.8555 15.3516C56.8685 15.599 56.7904 15.7878 56.6211 15.918C56.4648 16.0352 56.2891 16.0938 56.0938 16.0938C55.8984 16.0938 55.7161 16.0352 55.5469 15.918C55.3906 15.7878 55.306 15.599 55.293 15.3516C54.5508 15.6641 53.763 15.8464 52.9297 15.8984C52.0964 15.9375 51.3021 15.7878 50.5469 15.4492ZM50.6836 11.2109C50.6055 11.4453 50.5339 11.7122 50.4688 12.0117C50.4036 12.3112 50.3841 12.5977 50.4102 12.8711C50.4362 13.1445 50.5208 13.3984 50.6641 13.6328C50.8073 13.8542 51.0417 14.0104 51.3672 14.1016C52.0312 14.3099 52.6953 14.3685 53.3594 14.2773C54.0365 14.1862 54.668 13.9518 55.2539 13.5742C55.306 12.9362 55.3451 12.3177 55.3711 11.7188C55.4102 11.1198 55.4232 10.5143 55.4102 9.90234C55.1888 9.75911 54.9609 9.63542 54.7266 9.53125C54.5052 9.41406 54.2578 9.33594 53.9844 9.29688C53.7109 9.25781 53.418 9.23177 53.1055 9.21875C52.806 9.19271 52.513 9.19271 52.2266 9.21875C52.2005 9.21875 52.1289 9.23828 52.0117 9.27734C51.9076 9.30339 51.849 9.32292 51.8359 9.33594C51.7057 9.40104 51.5885 9.50521 51.4844 9.64844C51.3151 9.88281 51.1654 10.1367 51.0352 10.4102C50.9049 10.6706 50.7878 10.9375 50.6836 11.2109ZM59.5898 11.6406C59.2513 11.3932 59.0104 11.0872 58.8672 10.7227C58.724 10.3451 58.7174 9.94792 58.8477 9.53125C58.9779 9.15365 59.1797 8.8151 59.4531 8.51562C59.7266 8.21615 60.0391 7.97526 60.3906 7.79297C60.7812 7.58464 61.1979 7.42188 61.6406 7.30469C62.0833 7.1875 62.5326 7.1224 62.9883 7.10938C63.444 7.09635 63.8932 7.14193 64.3359 7.24609C64.7917 7.33724 65.2214 7.48698 65.625 7.69531C65.8464 7.8125 65.9701 7.96875 65.9961 8.16406C66.0221 8.35938 65.9831 8.54167 65.8789 8.71094C65.7878 8.88021 65.6445 9.00391 65.4492 9.08203C65.2539 9.16016 65.0456 9.14062 64.8242 9.02344C64.5117 8.85417 64.1602 8.74349 63.7695 8.69141C63.3789 8.63932 62.9818 8.63932 62.5781 8.69141C62.1875 8.73047 61.8164 8.82812 61.4648 8.98438C61.1133 9.14062 60.8203 9.34245 60.5859 9.58984C60.5208 9.65495 60.4753 9.70052 60.4492 9.72656C60.4362 9.7526 60.4102 9.8112 60.3711 9.90234L60.332 10.1172C60.3711 10.2344 60.4036 10.306 60.4297 10.332C60.6901 10.5013 60.957 10.612 61.2305 10.6641C61.5169 10.7031 61.8034 10.7292 62.0898 10.7422C62.4935 10.7682 62.9036 10.7943 63.3203 10.8203C63.75 10.8333 64.1602 10.8854 64.5508 10.9766C64.9544 11.0677 65.3255 11.2174 65.6641 11.4258C66.0026 11.6341 66.2891 11.9401 66.5234 12.3438C66.7839 12.7995 66.901 13.2747 66.875 13.7695C66.862 14.2513 66.6732 14.6875 66.3086 15.0781C65.944 15.4688 65.5208 15.7422 65.0391 15.8984C64.5573 16.0417 64.069 16.1458 63.5742 16.2109C63.1315 16.263 62.6693 16.276 62.1875 16.25C61.7188 16.224 61.263 16.1458 60.8203 16.0156C60.3906 15.8984 59.987 15.7161 59.6094 15.4688C59.2318 15.2083 58.9193 14.8698 58.6719 14.4531C58.5547 14.2448 58.5352 14.0495 58.6133 13.8672C58.6914 13.6719 58.8086 13.5286 58.9648 13.4375C59.1341 13.3333 59.3164 13.2943 59.5117 13.3203C59.7201 13.3464 59.8893 13.4635 60.0195 13.6719C60.2018 13.9714 60.4557 14.1992 60.7812 14.3555C61.1068 14.5117 61.4583 14.6224 61.8359 14.6875C62.2266 14.7396 62.6172 14.7526 63.0078 14.7266C63.3984 14.6875 63.75 14.6354 64.0625 14.5703C64.2318 14.5312 64.401 14.4792 64.5703 14.4141C64.7526 14.3359 64.9023 14.2448 65.0195 14.1406C65.1497 14.0365 65.2409 13.9193 65.293 13.7891C65.3451 13.6458 65.3385 13.4896 65.2734 13.3203C65.1432 12.9948 64.9219 12.7604 64.6094 12.6172C64.3099 12.474 63.9909 12.3893 63.6523 12.3633C63.3138 12.3372 62.9688 12.3242 62.6172 12.3242C62.2656 12.3242 61.9141 12.3112 61.5625 12.2852C61.2109 12.2461 60.8659 12.181 60.5273 12.0898C60.1888 11.9987 59.8763 11.849 59.5898 11.6406ZM76.6406 8.84766C77.1094 8.5612 77.6107 8.3138 78.1445 8.10547C78.6914 7.89714 79.2448 7.79948 79.8047 7.8125C79.7526 6.70573 79.707 5.60547 79.668 4.51172C79.6419 3.41797 79.6224 2.31771 79.6094 1.21094C79.6094 0.963542 79.6875 0.78125 79.8438 0.664062C80 0.533854 80.1758 0.46875 80.3711 0.46875C80.5664 0.46875 80.7422 0.533854 80.8984 0.664062C81.0677 0.78125 81.1523 0.963542 81.1523 1.21094C81.1654 2.5 81.1979 3.79557 81.25 5.09766C81.3021 6.38672 81.3542 7.67578 81.4062 8.96484C81.4583 10.2539 81.4974 11.5495 81.5234 12.8516C81.5495 14.1406 81.543 15.4297 81.5039 16.7188C81.4909 16.9661 81.3997 17.1549 81.2305 17.2852C81.0612 17.4154 80.8789 17.4805 80.6836 17.4805C80.4883 17.4805 80.3125 17.4154 80.1562 17.2852C80 17.168 79.9284 16.9792 79.9414 16.7188C79.9414 16.6276 79.9414 16.5365 79.9414 16.4453C79.9414 16.3542 79.9479 16.263 79.9609 16.1719C79.8307 16.1589 79.7005 16.1458 79.5703 16.1328C79.4531 16.1328 79.3359 16.1328 79.2188 16.1328C79.0625 16.1328 78.9062 16.1328 78.75 16.1328C78.5938 16.1328 78.444 16.1263 78.3008 16.1133C77.9622 16.0872 77.6237 16.0547 77.2852 16.0156C76.9466 15.9766 76.6146 15.8984 76.2891 15.7812C75.9635 15.651 75.6576 15.4948 75.3711 15.3125C75.0846 15.1172 74.8503 14.8633 74.668 14.5508C74.4596 14.2253 74.2839 13.8737 74.1406 13.4961C74.0104 13.1185 73.9583 12.7279 73.9844 12.3242C74.0104 11.9206 74.1016 11.5495 74.2578 11.2109C74.4141 10.8724 74.6094 10.5599 74.8438 10.2734C75.0911 9.98698 75.3646 9.72656 75.6641 9.49219C75.9766 9.25781 76.3021 9.04297 76.6406 8.84766ZM79.9805 14.6289C79.9805 12.8841 79.9414 11.1328 79.8633 9.375C79.4336 9.34896 79.0039 9.42708 78.5742 9.60938C78.1576 9.77865 77.7734 9.97396 77.4219 10.1953C77.2266 10.3125 77.0117 10.4492 76.7773 10.6055C76.556 10.7487 76.3477 10.918 76.1523 11.1133C75.9701 11.2956 75.8203 11.4974 75.7031 11.7188C75.5859 11.9401 75.5273 12.181 75.5273 12.4414C75.5404 12.6758 75.5924 12.9297 75.6836 13.2031C75.7747 13.4635 75.8984 13.6784 76.0547 13.8477C76.2109 14.0169 76.3867 14.1471 76.582 14.2383C76.7773 14.3164 76.9857 14.3815 77.207 14.4336C77.4674 14.4857 77.7148 14.5182 77.9492 14.5312C78.1966 14.5443 78.4505 14.5573 78.7109 14.5703C78.9193 14.5703 79.1276 14.5833 79.3359 14.6094C79.5443 14.6224 79.7591 14.6289 79.9805 14.6289ZM88.2812 6.97266C88.6979 6.92057 89.1341 6.90755 89.5898 6.93359C90.0456 6.94661 90.4818 7.02474 90.8984 7.16797C91.3151 7.29818 91.6927 7.5 92.0312 7.77344C92.3698 8.04688 92.6302 8.40495 92.8125 8.84766C92.9427 9.16016 93.0078 9.47917 93.0078 9.80469C93.0208 10.1172 92.9753 10.4232 92.8711 10.7227C92.7799 11.0091 92.6367 11.2891 92.4414 11.5625C92.2591 11.8229 92.0443 12.0638 91.7969 12.2852C91.263 12.7669 90.6771 13.1771 90.0391 13.5156C89.401 13.8542 88.7305 14.1146 88.0273 14.2969C87.7279 14.375 87.4154 14.4466 87.0898 14.5117C86.7773 14.5638 86.4583 14.5898 86.1328 14.5898C85.8073 14.5898 85.4883 14.5573 85.1758 14.4922C84.8633 14.4141 84.5703 14.2904 84.2969 14.1211C84.1016 14.0039 83.9844 13.8477 83.9453 13.6523C83.8672 13.431 83.7826 13.2227 83.6914 13.0273C83.6003 12.832 83.5091 12.6302 83.418 12.4219C83.3398 12.2135 83.2747 12.0052 83.2227 11.7969C83.1706 11.5885 83.1445 11.3737 83.1445 11.1523C83.1445 10.7096 83.2357 10.293 83.418 9.90234C83.6133 9.4987 83.8737 9.14714 84.1992 8.84766C84.7461 8.32682 85.3776 7.91016 86.0938 7.59766C86.8099 7.28516 87.5391 7.07682 88.2812 6.97266ZM90.4883 8.65234C90.1367 8.52214 89.7591 8.45703 89.3555 8.45703C88.9258 8.44401 88.4961 8.48958 88.0664 8.59375C87.6367 8.6849 87.2266 8.8151 86.8359 8.98438C86.4714 9.1276 86.0938 9.32943 85.7031 9.58984C85.3255 9.83724 85.0456 10.1432 84.8633 10.5078C84.7591 10.7031 84.707 10.9049 84.707 11.1133C84.7201 11.3086 84.7526 11.5104 84.8047 11.7188C84.8698 11.9141 84.9479 12.1159 85.0391 12.3242C85.1432 12.5195 85.2344 12.7148 85.3125 12.9102C85.5208 12.9622 85.651 12.9883 85.7031 12.9883C85.7292 13.0013 85.7617 13.0078 85.8008 13.0078C85.8398 13.0078 85.8724 13.0078 85.8984 13.0078C86.1589 13.0339 86.3932 13.0273 86.6016 12.9883C86.7448 12.9883 86.9271 12.9622 87.1484 12.9102C87.487 12.8451 87.8125 12.7604 88.125 12.6562C88.4375 12.5391 88.724 12.4154 88.9844 12.2852C89.2839 12.1419 89.5768 11.9857 89.8633 11.8164C90.1497 11.6471 90.3906 11.4714 90.5859 11.2891C90.7161 11.1719 90.8398 11.0482 90.957 10.918C91.0221 10.8529 91.0677 10.8008 91.0938 10.7617C91.1589 10.6706 91.2109 10.6055 91.25 10.5664C91.2891 10.5143 91.3216 10.4557 91.3477 10.3906C91.3997 10.2995 91.4258 10.2279 91.4258 10.1758C91.4388 10.1497 91.4453 10.1172 91.4453 10.0781C91.4583 10.0391 91.4714 10.0065 91.4844 9.98047V9.76562C91.4714 9.71354 91.4648 9.67448 91.4648 9.64844C91.4648 9.6224 91.4583 9.59635 91.4453 9.57031C91.4062 9.47917 91.3672 9.41406 91.3281 9.375C91.3021 9.32292 91.2695 9.27083 91.2305 9.21875C91.2435 9.23177 91.224 9.21224 91.1719 9.16016C91.1328 9.10807 91.1068 9.07552 91.0938 9.0625L90.9375 8.90625C90.8724 8.86719 90.8008 8.82161 90.7227 8.76953C90.6445 8.71745 90.5664 8.67839 90.4883 8.65234ZM101.66 15.7227C101.66 15.9701 101.576 16.1523 101.406 16.2695C101.25 16.3997 101.074 16.4648 100.879 16.4648C100.684 16.4648 100.508 16.3997 100.352 16.2695C100.195 16.1523 100.117 15.9701 100.117 15.7227C100.117 14.707 100.234 13.7305 100.469 12.793C100.703 11.8555 100.996 10.9245 101.348 10C101.257 9.83073 101.23 9.64193 101.27 9.43359C101.348 9.16016 101.517 8.99089 101.777 8.92578C102.038 8.30078 102.305 7.68229 102.578 7.07031C102.865 6.44531 103.138 5.82031 103.398 5.19531C103.659 4.57031 103.9 3.9388 104.121 3.30078C104.342 2.66276 104.525 2.01172 104.668 1.34766C104.707 1.15234 104.785 0.983073 104.902 0.839844C105.033 0.696615 105.208 0.625 105.43 0.625C105.638 0.625 105.827 0.703125 105.996 0.859375C106.165 1.0026 106.237 1.1849 106.211 1.40625C106.172 2.16146 106.185 2.85807 106.25 3.49609C106.315 4.12109 106.413 4.74609 106.543 5.37109C106.673 5.98307 106.816 6.60156 106.973 7.22656C107.142 7.83854 107.298 8.45052 107.441 9.0625C107.585 9.64844 107.715 10.2344 107.832 10.8203C107.949 11.4062 108.138 11.9727 108.398 12.5195C108.529 12.793 108.665 13.0599 108.809 13.3203C108.952 13.5677 109.108 13.8216 109.277 14.082C109.434 14.3164 109.577 14.5638 109.707 14.8242C109.837 15.0716 109.928 15.3451 109.98 15.6445C110.007 15.8529 109.974 16.0482 109.883 16.2305C109.805 16.4128 109.655 16.5365 109.434 16.6016C109.251 16.6536 109.056 16.6276 108.848 16.5234C108.639 16.4193 108.516 16.263 108.477 16.0547C108.424 15.7552 108.32 15.4883 108.164 15.2539C108.021 15.0195 107.871 14.7786 107.715 14.5312C107.533 14.2448 107.363 13.9583 107.207 13.6719C107.064 13.3724 106.934 13.0664 106.816 12.7539C106.686 12.4284 106.576 12.1029 106.484 11.7773C106.393 11.4388 106.309 11.1003 106.23 10.7617C105.645 10.7227 105.065 10.6966 104.492 10.6836C103.932 10.6576 103.366 10.612 102.793 10.5469C102.48 11.3802 102.214 12.2266 101.992 13.0859C101.784 13.9453 101.673 14.8242 101.66 15.7227ZM103.496 8.80859C103.47 8.84766 103.451 8.89323 103.438 8.94531C103.438 8.98438 103.424 9.02344 103.398 9.0625C103.815 9.10156 104.225 9.1276 104.629 9.14062C105.033 9.14062 105.443 9.15365 105.859 9.17969C105.716 8.55469 105.56 7.9362 105.391 7.32422C105.234 6.69922 105.091 6.06771 104.961 5.42969C104.727 6.0026 104.486 6.56901 104.238 7.12891C103.991 7.67578 103.743 8.23568 103.496 8.80859ZM112.852 16.2305C112.669 16.2956 112.467 16.276 112.246 16.1719C112.038 16.0677 111.921 15.9115 111.895 15.7031C111.712 14.5573 111.595 13.4245 111.543 12.3047C111.504 11.1719 111.484 10.0326 111.484 8.88672C111.484 8.69141 111.536 8.53516 111.641 8.41797C111.745 8.30078 111.868 8.22266 112.012 8.18359C112.155 8.14453 112.305 8.13802 112.461 8.16406C112.617 8.1901 112.747 8.25521 112.852 8.35938C113.151 8.11198 113.47 7.89714 113.809 7.71484C114.147 7.53255 114.486 7.41536 114.824 7.36328C115.176 7.29818 115.521 7.31771 115.859 7.42188C116.198 7.51302 116.517 7.71484 116.816 8.02734C117.064 8.28776 117.279 8.56771 117.461 8.86719C117.643 9.15365 117.806 9.45964 117.949 9.78516C118.145 9.29036 118.418 8.83464 118.77 8.41797C119.121 8.0013 119.57 7.72135 120.117 7.57812C120.521 7.47396 120.84 7.5 121.074 7.65625C121.309 7.79948 121.53 8.02734 121.738 8.33984C121.96 8.66536 122.161 8.9974 122.344 9.33594C122.539 9.67448 122.721 10.0195 122.891 10.3711C123.06 10.7227 123.223 11.0742 123.379 11.4258C123.535 11.7773 123.691 12.1224 123.848 12.4609C124.03 12.8385 124.186 13.2161 124.316 13.5938C124.46 13.9583 124.551 14.349 124.59 14.7656C124.616 14.987 124.538 15.1758 124.355 15.332C124.186 15.4753 124.004 15.5469 123.809 15.5469C123.587 15.5469 123.405 15.4753 123.262 15.332C123.132 15.1758 123.053 14.987 123.027 14.7656C123.001 14.4531 122.917 14.1536 122.773 13.8672C122.643 13.5677 122.513 13.2747 122.383 12.9883C122.24 12.6888 122.096 12.3828 121.953 12.0703C121.823 11.7578 121.686 11.4518 121.543 11.1523C121.4 10.8529 121.243 10.5534 121.074 10.2539C120.918 9.95443 120.749 9.66146 120.566 9.375C120.54 9.33594 120.514 9.29688 120.488 9.25781C120.462 9.21875 120.436 9.17969 120.41 9.14062C120.15 9.28385 119.961 9.42057 119.844 9.55078C119.727 9.68099 119.616 9.85677 119.512 10.0781C119.421 10.2734 119.342 10.4818 119.277 10.7031C119.225 10.9115 119.18 11.1263 119.141 11.3477C119.062 11.7643 119.004 12.2005 118.965 12.6562C118.939 12.9948 118.939 13.3203 118.965 13.6328C119.004 13.9453 118.991 14.2708 118.926 14.6094C118.887 14.8177 118.763 14.974 118.555 15.0781C118.359 15.1823 118.164 15.2083 117.969 15.1562C117.786 15.1042 117.65 15.013 117.559 14.8828C117.48 14.7396 117.428 14.5768 117.402 14.3945C117.35 13.9779 117.292 13.5482 117.227 13.1055C117.161 12.6628 117.077 12.2266 116.973 11.7969C116.868 11.3542 116.732 10.931 116.562 10.5273C116.406 10.1107 116.198 9.72656 115.938 9.375C115.755 9.14062 115.566 8.98438 115.371 8.90625C115.189 8.82812 114.961 8.86068 114.688 9.00391C114.388 9.16016 114.095 9.34896 113.809 9.57031C113.522 9.79167 113.268 10.0391 113.047 10.3125C113.06 11.1458 113.086 11.9792 113.125 12.8125C113.177 13.6328 113.268 14.4531 113.398 15.2734C113.424 15.4948 113.392 15.6966 113.301 15.8789C113.223 16.0482 113.073 16.1654 112.852 16.2305ZM127.188 15.4492C126.745 15.2539 126.393 14.987 126.133 14.6484C125.885 14.2969 125.71 13.9128 125.605 13.4961C125.514 13.0794 125.488 12.6497 125.527 12.207C125.566 11.7513 125.658 11.3151 125.801 10.8984C125.918 10.5729 126.048 10.2344 126.191 9.88281C126.348 9.53125 126.53 9.20573 126.738 8.90625C126.947 8.60677 127.194 8.35286 127.48 8.14453C127.767 7.92318 128.105 7.77995 128.496 7.71484C128.9 7.64974 129.303 7.63021 129.707 7.65625C130.124 7.66927 130.534 7.70833 130.938 7.77344C131.12 7.79948 131.296 7.84505 131.465 7.91016C131.634 7.96224 131.803 8.02083 131.973 8.08594C131.986 7.89062 132.07 7.72786 132.227 7.59766C132.396 7.46745 132.572 7.40234 132.754 7.40234C132.975 7.40234 133.151 7.48047 133.281 7.63672C133.424 7.77995 133.509 7.95573 133.535 8.16406C133.6 8.76302 133.626 9.36198 133.613 9.96094C133.613 10.5599 133.594 11.1589 133.555 11.7578C133.529 12.3568 133.503 12.9557 133.477 13.5547C133.464 14.1536 133.47 14.7526 133.496 15.3516C133.509 15.599 133.431 15.7878 133.262 15.918C133.105 16.0352 132.93 16.0938 132.734 16.0938C132.539 16.0938 132.357 16.0352 132.188 15.918C132.031 15.7878 131.947 15.599 131.934 15.3516C131.191 15.6641 130.404 15.8464 129.57 15.8984C128.737 15.9375 127.943 15.7878 127.188 15.4492ZM127.324 11.2109C127.246 11.4453 127.174 11.7122 127.109 12.0117C127.044 12.3112 127.025 12.5977 127.051 12.8711C127.077 13.1445 127.161 13.3984 127.305 13.6328C127.448 13.8542 127.682 14.0104 128.008 14.1016C128.672 14.3099 129.336 14.3685 130 14.2773C130.677 14.1862 131.309 13.9518 131.895 13.5742C131.947 12.9362 131.986 12.3177 132.012 11.7188C132.051 11.1198 132.064 10.5143 132.051 9.90234C131.829 9.75911 131.602 9.63542 131.367 9.53125C131.146 9.41406 130.898 9.33594 130.625 9.29688C130.352 9.25781 130.059 9.23177 129.746 9.21875C129.447 9.19271 129.154 9.19271 128.867 9.21875C128.841 9.21875 128.77 9.23828 128.652 9.27734C128.548 9.30339 128.49 9.32292 128.477 9.33594C128.346 9.40104 128.229 9.50521 128.125 9.64844C127.956 9.88281 127.806 10.1367 127.676 10.4102C127.546 10.6706 127.428 10.9375 127.324 11.2109ZM135.625 14.1016C135.625 13.5417 135.664 12.9753 135.742 12.4023C135.833 11.7122 135.924 11.0286 136.016 10.3516C136.107 9.66146 136.146 8.96484 136.133 8.26172C136.133 8.01432 136.211 7.82552 136.367 7.69531C136.523 7.5651 136.699 7.5 136.895 7.5C137.09 7.5 137.272 7.5651 137.441 7.69531C137.611 7.82552 137.695 8.01432 137.695 8.26172C138.203 8.22266 138.685 8.20312 139.141 8.20312C139.661 8.21615 140.104 8.36589 140.469 8.65234C140.833 8.9388 141.107 9.32292 141.289 9.80469C141.445 10.2474 141.536 10.7031 141.562 11.1719C141.589 11.6406 141.608 12.1094 141.621 12.5781C141.634 13.2422 141.654 13.9062 141.68 14.5703C141.706 15.2214 141.719 15.8789 141.719 16.543C141.719 16.8034 141.634 16.9922 141.465 17.1094C141.309 17.2396 141.133 17.3047 140.938 17.3047C140.755 17.3047 140.579 17.2396 140.41 17.1094C140.254 16.9922 140.176 16.8034 140.176 16.543C140.176 15.918 140.163 15.306 140.137 14.707C140.124 14.1081 140.104 13.4961 140.078 12.8711C140.052 12.5326 140.039 12.1875 140.039 11.8359C140.052 11.4714 140.026 11.1393 139.961 10.8398C139.922 10.6576 139.883 10.5013 139.844 10.3711C139.805 10.2279 139.733 10.0911 139.629 9.96094C139.603 9.90885 139.544 9.86328 139.453 9.82422C139.375 9.78516 139.303 9.76562 139.238 9.76562C139.043 9.76562 138.861 9.77865 138.691 9.80469C138.522 9.83073 138.346 9.86979 138.164 9.92188C138.086 9.94792 138.008 9.97396 137.93 10C137.852 10.026 137.78 10.0586 137.715 10.0977C137.585 10.5664 137.487 11.0156 137.422 11.4453C137.37 11.862 137.318 12.2852 137.266 12.7148C137.227 13.0273 137.201 13.3464 137.188 13.6719C137.188 13.9844 137.174 14.2969 137.148 14.6094C137.135 14.9219 137.096 15.2344 137.031 15.5469C136.979 15.8594 136.882 16.1589 136.738 16.4453C136.621 16.6667 136.465 16.7904 136.27 16.8164C136.074 16.8555 135.892 16.8229 135.723 16.7188C135.566 16.6276 135.443 16.4844 135.352 16.2891C135.273 16.0938 135.286 15.8854 135.391 15.6641C135.508 15.4297 135.573 15.1758 135.586 14.9023C135.599 14.6289 135.612 14.362 135.625 14.1016ZM143.906 15.5859C143.724 15.5208 143.568 15.3971 143.438 15.2148C143.32 15.0195 143.301 14.8242 143.379 14.6289C143.6 14.0169 143.75 13.3984 143.828 12.7734C143.906 12.1484 143.958 11.5104 143.984 10.8594C143.997 10.6641 144.004 10.4753 144.004 10.293C144.004 10.0977 144.01 9.90234 144.023 9.70703C143.984 9.55078 143.997 9.40104 144.062 9.25781C144.089 8.88021 144.115 8.5026 144.141 8.125C144.167 7.73438 144.206 7.35026 144.258 6.97266C144.323 6.39974 144.388 5.83333 144.453 5.27344C144.531 4.70052 144.583 4.12109 144.609 3.53516C144.635 3.0013 144.661 2.47396 144.688 1.95312C144.727 1.41927 144.863 0.911458 145.098 0.429688C145.215 0.208333 145.371 0.0846354 145.566 0.0585938C145.762 0.0195312 145.944 0.0520833 146.113 0.15625C146.283 0.247396 146.406 0.390625 146.484 0.585938C146.576 0.78125 146.562 0.989583 146.445 1.21094C146.341 1.43229 146.27 1.66016 146.23 1.89453C146.191 2.12891 146.165 2.36979 146.152 2.61719C146.152 2.86458 146.152 3.11198 146.152 3.35938C146.152 3.60677 146.146 3.84766 146.133 4.08203C146.068 4.66797 146.003 5.25391 145.938 5.83984C145.872 6.41276 145.807 6.99219 145.742 7.57812C146.289 7.30469 146.895 7.15495 147.559 7.12891C148.079 7.11589 148.607 7.20703 149.141 7.40234C149.688 7.58464 150.13 7.88411 150.469 8.30078C150.664 8.54818 150.82 8.82161 150.938 9.12109C151.055 9.40755 151.146 9.71354 151.211 10.0391C151.289 10.3516 151.341 10.6706 151.367 10.9961C151.393 11.3086 151.419 11.6146 151.445 11.9141C151.484 12.526 151.497 13.138 151.484 13.75C151.484 14.349 151.471 14.9609 151.445 15.5859C151.445 15.8333 151.361 16.0156 151.191 16.1328C151.022 16.263 150.84 16.3281 150.645 16.3281C150.449 16.3281 150.273 16.263 150.117 16.1328C149.961 16.0156 149.889 15.8333 149.902 15.5859C149.915 15.0651 149.928 14.5443 149.941 14.0234C149.954 13.5026 149.948 12.9818 149.922 12.4609C149.896 12.2005 149.876 11.9336 149.863 11.6602C149.85 11.3867 149.818 11.1133 149.766 10.8398C149.74 10.7096 149.714 10.5859 149.688 10.4688C149.674 10.3385 149.648 10.2083 149.609 10.0781C149.596 9.97396 149.564 9.86328 149.512 9.74609C149.473 9.62891 149.447 9.5638 149.434 9.55078C149.408 9.51172 149.388 9.47917 149.375 9.45312C149.362 9.41406 149.342 9.375 149.316 9.33594C149.199 9.20573 149.128 9.13411 149.102 9.12109C149.049 9.08203 149.004 9.05599 148.965 9.04297C148.926 9.01693 148.887 8.99089 148.848 8.96484C148.704 8.88672 148.542 8.82161 148.359 8.76953C148.177 8.71745 148.001 8.69141 147.832 8.69141C147.389 8.66536 146.973 8.74349 146.582 8.92578C146.204 9.10807 145.866 9.38802 145.566 9.76562C145.54 10.6641 145.495 11.556 145.43 12.4414C145.365 13.3138 145.176 14.1797 144.863 15.0391C144.798 15.2344 144.674 15.3906 144.492 15.5078C144.323 15.625 144.128 15.651 143.906 15.5859ZM154.668 15.4492C154.225 15.2539 153.874 14.987 153.613 14.6484C153.366 14.2969 153.19 13.9128 153.086 13.4961C152.995 13.0794 152.969 12.6497 153.008 12.207C153.047 11.7513 153.138 11.3151 153.281 10.8984C153.398 10.5729 153.529 10.2344 153.672 9.88281C153.828 9.53125 154.01 9.20573 154.219 8.90625C154.427 8.60677 154.674 8.35286 154.961 8.14453C155.247 7.92318 155.586 7.77995 155.977 7.71484C156.38 7.64974 156.784 7.63021 157.188 7.65625C157.604 7.66927 158.014 7.70833 158.418 7.77344C158.6 7.79948 158.776 7.84505 158.945 7.91016C159.115 7.96224 159.284 8.02083 159.453 8.08594C159.466 7.89062 159.551 7.72786 159.707 7.59766C159.876 7.46745 160.052 7.40234 160.234 7.40234C160.456 7.40234 160.632 7.48047 160.762 7.63672C160.905 7.77995 160.99 7.95573 161.016 8.16406C161.081 8.76302 161.107 9.36198 161.094 9.96094C161.094 10.5599 161.074 11.1589 161.035 11.7578C161.009 12.3568 160.983 12.9557 160.957 13.5547C160.944 14.1536 160.951 14.7526 160.977 15.3516C160.99 15.599 160.911 15.7878 160.742 15.918C160.586 16.0352 160.41 16.0938 160.215 16.0938C160.02 16.0938 159.837 16.0352 159.668 15.918C159.512 15.7878 159.427 15.599 159.414 15.3516C158.672 15.6641 157.884 15.8464 157.051 15.8984C156.217 15.9375 155.423 15.7878 154.668 15.4492ZM154.805 11.2109C154.727 11.4453 154.655 11.7122 154.59 12.0117C154.525 12.3112 154.505 12.5977 154.531 12.8711C154.557 13.1445 154.642 13.3984 154.785 13.6328C154.928 13.8542 155.163 14.0104 155.488 14.1016C156.152 14.3099 156.816 14.3685 157.48 14.2773C158.158 14.1862 158.789 13.9518 159.375 13.5742C159.427 12.9362 159.466 12.3177 159.492 11.7188C159.531 11.1198 159.544 10.5143 159.531 9.90234C159.31 9.75911 159.082 9.63542 158.848 9.53125C158.626 9.41406 158.379 9.33594 158.105 9.29688C157.832 9.25781 157.539 9.23177 157.227 9.21875C156.927 9.19271 156.634 9.19271 156.348 9.21875C156.322 9.21875 156.25 9.23828 156.133 9.27734C156.029 9.30339 155.97 9.32292 155.957 9.33594C155.827 9.40104 155.71 9.50521 155.605 9.64844C155.436 9.88281 155.286 10.1367 155.156 10.4102C155.026 10.6706 154.909 10.9375 154.805 11.2109ZM159.16 5.97656C158.887 6.08073 158.6 6.11328 158.301 6.07422C158.014 6.02214 157.754 5.90495 157.52 5.72266C157.337 5.57943 157.161 5.42318 156.992 5.25391C156.823 5.07161 156.621 4.96094 156.387 4.92188C156.165 4.88281 155.951 4.92188 155.742 5.03906C155.547 5.15625 155.378 5.28646 155.234 5.42969C155.052 5.61198 154.857 5.6901 154.648 5.66406C154.453 5.63802 154.284 5.5599 154.141 5.42969C154.01 5.28646 153.926 5.11719 153.887 4.92188C153.861 4.71354 153.939 4.51823 154.121 4.33594C154.342 4.11458 154.59 3.92578 154.863 3.76953C155.137 3.61328 155.423 3.5026 155.723 3.4375C156.035 3.35938 156.341 3.34635 156.641 3.39844C156.953 3.4375 157.253 3.54167 157.539 3.71094C157.786 3.88021 158.001 4.0625 158.184 4.25781C158.249 4.32292 158.307 4.38151 158.359 4.43359C158.411 4.47266 158.47 4.50521 158.535 4.53125C158.613 4.54427 158.691 4.52474 158.77 4.47266C158.848 4.40755 158.926 4.33594 159.004 4.25781C159.082 4.16667 159.154 4.07552 159.219 3.98438C159.284 3.88021 159.336 3.80208 159.375 3.75C159.518 3.58073 159.701 3.5026 159.922 3.51562C160.143 3.52865 160.326 3.60677 160.469 3.75C160.638 3.90625 160.716 4.08854 160.703 4.29688C160.69 4.49219 160.612 4.67448 160.469 4.84375C160.286 5.0651 160.098 5.28646 159.902 5.50781C159.707 5.71615 159.46 5.8724 159.16 5.97656Z" fill="#292524"/>
</svg>
